# xmcd CD database file
#
# Track frame offsets:
#	150
#	29003
#	51862
#	65025
#	82631
#	98750
#	128629
#	156625
#	171195
#	194263
#	229131
#	251937
#
# Disc length: 3680 seconds
#
# Revision: 2
# Processed by: cddbd v1.5.2PL0 Copyright (c) Steve Scherf et al.
# Submitted via: CDex 1.99.1
#
DISCID=a50e5e0c
DTITLE=Itzhak Perlman - The Jazz Album CD 2
DYEAR=1986
DGENRE=Jazz
TTITLE0=Previn - A different kind of blues
TTITLE1=Previn - Chocolate apricot
TTITLE2=Previn - The five of us
TTITLE3=Previn - Make up your mind
TTITLE4=Previn - It's a Breeze
TTITLE5=Previn - Rain in my head
TTITLE6=Previn - Catgut your tongue
TTITLE7=Previn - It's about time
TTITLE8=Previn - Quiet diddling
TTITLE9=Previn - A tune for Heather
TTITLE10=Previn - Bowing and scraping
TTITLE11=Previn - The red bar
EXTD=YEAR: 1986
EXTT0=
EXTT1=
EXTT2=
EXTT3=
EXTT4=
EXTT5=
EXTT6=
EXTT7=
EXTT8=
EXTT9=
EXTT10=
EXTT11=
PLAYORDER=
